<svg id="Layer_1" data-name="Layer 1" xmlns="http://www.w3.org/2000/svg" viewBox="0 0 19 19"><defs><style>.cls-1{fill:#333332;}</style></defs><title>Artboard 1</title><path class="cls-1" d="M16.32,6.56a7.27,7.27,0,0,0-4-4A7.29,7.29,0,0,0,9.44,2a7.17,7.17,0,0,0-2.9.6,7.3,7.3,0,0,0-4,4A7.16,7.16,0,0,0,2,9.46a7.28,7.28,0,0,0,.59,2.91,7.47,7.47,0,0,0,6.87,4.56,7.46,7.46,0,0,0,2.91-.59,7.32,7.32,0,0,0,4-4,7.29,7.29,0,0,0,.6-2.91A7.17,7.17,0,0,0,16.32,6.56Zm-1.19,6.2a6.55,6.55,0,0,1-2.4,2.39,6.56,6.56,0,0,1-5.84.36A6.46,6.46,0,0,1,3.4,12a6.31,6.31,0,0,1-.51-2.55,6.48,6.48,0,0,1,.87-3.29A6.68,6.68,0,0,1,6.15,3.78,6.39,6.39,0,0,1,9.44,2.9a6.41,6.41,0,0,1,3.29.88,6.63,6.63,0,0,1,2.4,2.39A6.39,6.39,0,0,1,16,9.46,6.45,6.45,0,0,1,15.13,12.76Z"/><path class="cls-1" d="M9.91,9.39V5.16a.47.47,0,0,0-.47-.46A.46.46,0,0,0,9,5.16v4.3s0,0,0,.06a.45.45,0,0,0,.13.37l2.44,2.44a.45.45,0,0,0,.63,0,.43.43,0,0,0,0-.63Z"/></svg>